<svg width="43" height="43" viewBox="0 0 43 43" fill="none" xmlns="http://www.w3.org/2000/svg">
<path d="M21.5 28.2243C24.4685 28.2243 26.875 25.8178 26.875 22.8493C26.875 19.8808 24.4685 17.4743 21.5 17.4743C18.5315 17.4743 16.125 19.8808 16.125 22.8493C16.125 25.8178 18.5315 28.2243 21.5 28.2243Z" fill="#512A18"/>
<path d="M38.2969 12.0929H31.3262C31.0742 12.0929 30.7618 11.9299 30.5182 11.6729L28.2271 8.07841C27.2949 6.71786 26.875 6.71786 25.3633 6.71786H17.6367C16.125 6.71786 15.6211 6.71786 14.7754 8.07925L12.4818 11.6729C12.2953 11.8762 12.0333 12.0929 11.7578 12.0929V10.7491C11.7578 10.5709 11.687 10.4 11.561 10.274C11.435 10.148 11.2641 10.0772 11.0859 10.0772H7.72656C7.54837 10.0772 7.37748 10.148 7.25147 10.274C7.12547 10.4 7.05469 10.5709 7.05469 10.7491V12.0929H4.70312C4.16855 12.0929 3.65587 12.3052 3.27786 12.6832C2.89986 13.0612 2.6875 13.5739 2.6875 14.1085V34.2647C2.6875 34.7993 2.89986 35.312 3.27786 35.69C3.65587 36.068 4.16855 36.2804 4.70312 36.2804H38.2969C38.8314 36.2804 39.3441 36.068 39.7221 35.69C40.1001 35.312 40.3125 34.7993 40.3125 34.2647V14.1085C40.3125 13.5739 40.1001 13.0612 39.7221 12.6832C39.3441 12.3052 38.8314 12.0929 38.2969 12.0929ZM21.8788 30.897C20.2537 30.9733 18.6436 30.5562 17.2599 29.7006C15.8763 28.8449 14.7838 27.5907 14.1262 26.1027C13.4685 24.6147 13.2763 22.9625 13.575 21.3633C13.8736 19.7641 14.6491 18.2927 15.7994 17.1423C16.9498 15.9919 18.4212 15.2165 20.0205 14.9179C21.6197 14.6192 23.2718 14.8114 24.7598 15.469C26.2478 16.1267 27.502 17.2191 28.3577 18.6028C29.2134 19.9864 29.6304 21.5966 29.5541 23.2216C29.4578 25.2262 28.6183 27.123 27.1992 28.5421C25.7802 29.9612 23.8833 30.8007 21.8788 30.897Z" fill="#512A18"/>
</svg>
