<svg width="32" height="32" viewBox="0 0 32 32" fill="none" xmlns="http://www.w3.org/2000/svg">
<path d="M16 0C7.17769 0 0 7.17769 0 16C0 24.8223 7.17769 32 16 32C24.8223 32 32 24.8223 32 16C32 7.17769 24.8223 0 16 0ZM18.4615 23.3846H13.5385C13.212 23.3846 12.899 23.2549 12.6682 23.0241C12.4374 22.7933 12.3077 22.4803 12.3077 22.1538C12.3077 21.8274 12.4374 21.5144 12.6682 21.2836C12.899 21.0527 13.212 20.9231 13.5385 20.9231H18.4615C18.788 20.9231 19.101 21.0527 19.3318 21.2836C19.5626 21.5144 19.6923 21.8274 19.6923 22.1538C19.6923 22.4803 19.5626 22.7933 19.3318 23.0241C19.101 23.2549 18.788 23.3846 18.4615 23.3846ZM22.1538 18.4615H9.84615C9.51973 18.4615 9.20668 18.3319 8.97587 18.1011C8.74506 17.8702 8.61539 17.5572 8.61539 17.2308C8.61539 16.9044 8.74506 16.5913 8.97587 16.3605C9.20668 16.1297 9.51973 16 9.84615 16H22.1538C22.4803 16 22.7933 16.1297 23.0241 16.3605C23.2549 16.5913 23.3846 16.9044 23.3846 17.2308C23.3846 17.5572 23.2549 17.8702 23.0241 18.1011C22.7933 18.3319 22.4803 18.4615 22.1538 18.4615ZM24.6154 13.5385H7.38462C7.0582 13.5385 6.74514 13.4088 6.51433 13.178C6.28352 12.9472 6.15385 12.6341 6.15385 12.3077C6.15385 11.9813 6.28352 11.6682 6.51433 11.4374C6.74514 11.2066 7.0582 11.0769 7.38462 11.0769H24.6154C24.9418 11.0769 25.2549 11.2066 25.4857 11.4374C25.7165 11.6682 25.8462 11.9813 25.8462 12.3077C25.8462 12.6341 25.7165 12.9472 25.4857 13.178C25.2549 13.4088 24.9418 13.5385 24.6154 13.5385Z" fill="#512A18"/>
</svg>
