<svg width="33" height="33" viewBox="0 0 33 33" fill="none" xmlns="http://www.w3.org/2000/svg">
<path d="M16.25 1C7.82804 1 1 7.82804 1 16.25C1 24.672 7.82804 31.5 16.25 31.5C24.672 31.5 31.5 24.672 31.5 16.25C31.5 7.82804 24.672 1 16.25 1Z" stroke="#512A18" stroke-width="1.5" stroke-miterlimit="10"/>
<path d="M16.2504 1C11.9929 1 7.98975 7.82804 7.98975 16.25C7.98975 24.672 11.9929 31.5 16.2504 31.5C20.5079 31.5 24.5111 24.672 24.5111 16.25C24.5111 7.82804 20.5079 1 16.2504 1Z" stroke="#512A18" stroke-width="1.5" stroke-miterlimit="10"/>
<path d="M6.0835 6.0835C8.88715 8.07406 12.4166 9.26107 16.2504 9.26107C20.0842 9.26107 23.6137 8.07406 26.4173 6.0835M26.4173 26.4173C23.6137 24.4268 20.0842 23.2397 16.2504 23.2397C12.4166 23.2397 8.88715 24.4268 6.0835 26.4173" stroke="#512A18" stroke-width="1.5" stroke-linecap="round" stroke-linejoin="round"/>
<path d="M31.5 16.25H1M16.25 1V31.5V1Z" stroke="#512A18" stroke-width="1.5" stroke-miterlimit="10"/>
</svg>
