<svg width="34" height="34" viewBox="0 0 34 34" fill="none" xmlns="http://www.w3.org/2000/svg">
<path d="M11.4615 1.00099V26.8446M21.4054 6.8958L12.5946 1.25943C12.2441 1.08437 11.8569 0.995494 11.4652 1.00018C11.0735 1.00486 10.6885 1.10297 10.3423 1.28635L1.65462 7.115C1.45697 7.2197 1.29159 7.37627 1.17625 7.56789C1.06091 7.75952 0.99998 7.97894 1 8.20259V30.9542C0.999981 31.1664 1.05486 31.3751 1.15929 31.5598C1.26373 31.7446 1.41418 31.8992 1.59603 32.0087C1.77788 32.1181 1.98494 32.1787 2.19712 32.1845C2.40929 32.1903 2.61936 32.1411 2.80692 32.0418L10.3315 27.1353C10.6806 26.9505 11.0689 26.8523 11.4639 26.849C11.8589 26.8458 12.2488 26.9377 12.6008 27.1169L21.2054 32.7317C21.5543 32.9095 21.9406 33.0015 22.3322 33C22.7238 32.9985 23.1094 32.9036 23.4569 32.7233L32.3362 26.8823C32.5362 26.7785 32.7039 26.6217 32.821 26.4291C32.9381 26.2365 33 26.0155 33 25.7901V3.04463C33 2.8324 32.9451 2.62377 32.8407 2.43901C32.7363 2.25424 32.5858 2.09962 32.404 1.99017C32.2221 1.88071 32.0151 1.82014 31.8029 1.81434C31.5907 1.80854 31.3806 1.8577 31.1931 1.95705L23.6546 6.86887C23.3088 7.05174 22.9244 7.14957 22.5333 7.15425C22.1421 7.15894 21.7555 7.07033 21.4054 6.8958V6.8958ZM22.5385 7.15423V32.9978V7.15423Z" stroke="#512A18" stroke-width="1.5" stroke-linecap="round" stroke-linejoin="round"/>
</svg>
