<svg width="32" height="30" viewBox="0 0 32 30" fill="none" xmlns="http://www.w3.org/2000/svg">
<path d="M2.12913e-05 16.0782C2.12913e-05 16.7511 0.533155 17.2966 1.19074 17.2966C1.84834 17.2966 2.38146 16.7511 2.38146 16.0782C2.38146 12.3111 3.87358 8.90067 6.28601 6.43218C8.69844 3.96365 12.0313 2.43683 15.7128 2.43683C19.3942 2.43683 22.7272 3.96365 25.1396 6.43218C27.552 8.90067 29.0441 12.3111 29.0441 16.0782C29.0441 16.7511 29.5772 17.2966 30.2348 17.2966C30.8924 17.2966 31.4255 16.7511 31.4255 16.0782C31.4255 11.6385 29.6668 7.61889 26.8233 4.70929C23.9798 1.79965 20.0516 0 15.7128 0C11.374 0 7.44577 1.79965 4.60226 4.70929C1.75875 7.61889 0 11.6385 0 16.0782H2.12913e-05Z" fill="#512A18"/>
<path d="M12.5428 18.4958C13.1979 18.5115 13.7414 17.981 13.7568 17.3107C13.7722 16.6404 13.2537 16.0842 12.5986 16.0685C10.1143 16.0068 7.87363 15.8727 6.06166 15.6867C8.59257 15.4281 11.9775 15.2703 15.7128 15.2703C19.4481 15.2703 22.8331 15.4281 25.364 15.6867C23.5502 15.8728 21.3069 16.0071 18.8195 16.0687C18.1644 16.0844 17.6459 16.6406 17.6613 17.3109C17.6767 17.9812 18.2202 18.5117 18.8753 18.496C22.2135 18.4134 25.1298 18.203 27.2008 17.9128C29.8441 17.5423 31.4256 16.7861 31.4256 15.6862C31.4256 14.5088 29.393 13.6915 26.107 13.3217C23.4267 13.0201 19.7502 12.8335 15.7128 12.8335C11.6754 12.8335 7.99883 13.0201 5.31853 13.3217C2.03255 13.6915 0 14.5088 0 15.6862C0 16.7859 1.5805 17.5419 4.22243 17.9124C6.29198 18.2026 9.20637 18.413 12.5428 18.4958L12.5428 18.4958ZM2.38146 15.6862C2.38146 15.8472 2.57844 15.7587 2.94017 15.6506C2.57782 15.5985 2.38146 15.5759 2.38146 15.6862ZM29.0442 15.6862C29.0442 15.5759 28.8476 15.5985 28.4849 15.6507C28.847 15.7587 29.0442 15.8471 29.0442 15.6862Z" fill="#512A18"/>
<path d="M19.2171 13.9241C19.0835 13.267 18.4546 12.8451 17.8125 12.9817C17.1703 13.1184 16.758 13.7619 16.8915 14.419L19.3069 26.1887C18.0459 26.7268 16.816 26.9859 15.6159 26.9794C14.4399 26.9731 13.2751 26.7103 12.1212 26.204L14.5964 14.4238C14.7325 13.7667 14.3223 13.121 13.6802 12.9818C13.038 12.8425 12.407 13.2622 12.2709 13.9193L9.61539 26.5574C9.46671 27.0987 9.70143 27.6913 10.2073 27.9639L10.7621 26.8859L10.2086 27.9615C11.9596 28.905 13.758 29.3967 15.6066 29.4067C17.4206 29.4165 19.2578 28.9609 21.1193 28.0116C21.6388 27.792 21.9484 27.2187 21.8288 26.6355L21.8258 26.6361L19.2171 13.9241L19.2171 13.9241Z" fill="#512A18"/>
</svg>
