<svg width="21" height="21" viewBox="0 0 21 21" fill="none" xmlns="http://www.w3.org/2000/svg">
<path d="M15.5291 4.77858L2.77297 17.5661L2 19.4373L3.87125 18.6644L16.6588 5.90827L15.5291 4.77858ZM18.0814 2.2267L17.5288 2.77889L18.6584 3.90858L19.2111 3.35592C19.3561 3.2108 19.4376 3.01404 19.4376 2.80889C19.4376 2.60374 19.3561 2.40698 19.2111 2.26186L19.1759 2.2267C19.1041 2.15483 19.0188 2.09782 18.9249 2.05892C18.831 2.02002 18.7303 2 18.6287 2C18.527 2 18.4264 2.02002 18.3325 2.05892C18.2386 2.09782 18.1533 2.15483 18.0814 2.2267Z" stroke="#666666" stroke-width="2.0625" stroke-linecap="round" stroke-linejoin="round"/>
</svg>
