<svg width="26" height="24" viewBox="0 0 26 24" fill="none" xmlns="http://www.w3.org/2000/svg">
<path d="M12.1559 23.2382L12.157 23.2389C12.4055 23.4086 12.6993 23.4995 13.0002 23.5C13.301 23.4996 13.5947 23.4088 13.8433 23.2394L13.8441 23.2388C18.7192 19.9293 20.8095 17.6748 21.9499 16.2853C24.3867 13.3143 25.5317 10.2972 25.4993 7.04507C25.4626 3.42536 22.5603 0.5 19.0572 0.5C16.507 0.5 14.7253 1.93268 13.6624 3.17015L13.6606 3.17223C13.5785 3.2668 13.477 3.34264 13.363 3.39461C13.2491 3.44658 13.1253 3.47348 13 3.47348C12.8747 3.47348 12.7509 3.44658 12.637 3.39461L12.8444 2.93968L12.637 3.39461C12.523 3.34264 12.4215 3.2668 12.3394 3.17223L12.3377 3.17034C11.2747 1.93379 9.49284 0.5 6.94282 0.5C3.43967 0.5 0.537424 3.42534 0.500669 7.04436L12.1559 23.2382ZM12.1559 23.2382C7.28084 19.9286 5.19048 17.6742 4.05013 16.2847M12.1559 23.2382L4.05013 16.2847M4.05013 16.2847C1.61209 13.3131 0.468296 10.296 0.500668 7.04445L4.05013 16.2847Z" fill="#D2C08D" stroke="#D2C08D"/>
</svg>
