<svg width="32" height="32" viewBox="0 0 32 32" fill="none" xmlns="http://www.w3.org/2000/svg">
<path d="M16.0661 0.00147218C7.15553 -0.118879 -0.118879 7.15553 0.00147218 16.0661C0.1203 24.6118 7.0786 31.5701 15.6243 31.689C24.5364 31.8108 31.8093 24.5364 31.6874 15.6258C31.5701 7.0786 24.6118 0.1203 16.0661 0.00147218ZM25.6958 24.9287C25.6654 24.9615 25.6282 24.9873 25.5868 25.0041C25.5454 25.0209 25.5008 25.0285 25.4562 25.0261C25.4116 25.0238 25.368 25.0117 25.3286 24.9906C25.2891 24.9696 25.2548 24.9401 25.2281 24.9043C24.5467 24.0129 23.7124 23.2498 22.7639 22.6504C20.8246 21.4058 18.3673 20.7202 15.8452 20.7202C13.3232 20.7202 10.8659 21.4058 8.92653 22.6504C7.97809 23.2495 7.14372 24.0124 6.46237 24.9036C6.4356 24.9394 6.40129 24.9688 6.36186 24.9899C6.32244 25.0109 6.27886 25.023 6.23423 25.0254C6.1896 25.0277 6.14501 25.0202 6.10361 25.0033C6.06221 24.9865 6.02502 24.9608 5.99467 24.928C3.75954 22.5151 2.49343 19.3623 2.43897 16.0737C2.31481 8.66145 8.39714 2.45725 15.8125 2.43897C23.2278 2.42069 29.2515 8.44208 29.2515 15.8452C29.254 19.2131 27.984 22.4576 25.6958 24.9287V24.9287Z" fill="#512A18"/>
<path d="M15.8458 7.30957C14.3437 7.30957 12.9856 7.87248 12.0205 8.89547C11.0554 9.91846 10.5732 11.333 10.6821 12.8511C10.903 15.8408 13.2194 18.2783 15.8458 18.2783C18.4722 18.2783 20.784 15.8408 21.0095 12.8518C21.1222 11.3482 20.6439 9.94664 19.6628 8.90461C18.6939 7.87629 17.338 7.30957 15.8458 7.30957Z" fill="#512A18"/>
</svg>
