<svg width="43" height="44" viewBox="0 0 43 44" fill="none" xmlns="http://www.w3.org/2000/svg">
<g clip-path="url(#clip0_241_328)">
<path d="M5.37501 30.4672C5.37501 30.8469 5.67584 31.1547 6.0469 31.1547C6.41796 31.1547 6.71879 30.8469 6.71879 30.4672C6.71879 28.3415 7.56075 26.4171 8.92202 25.0242C10.2832 23.6313 12.1639 22.7698 14.2413 22.7698C16.3186 22.7698 18.1993 23.6313 19.5605 25.0242C20.9218 26.4171 21.7638 28.3415 21.7638 30.4672C21.7638 30.8469 22.0646 31.1547 22.4357 31.1547C22.8067 31.1547 23.1076 30.8469 23.1076 30.4672C23.1076 27.962 22.1151 25.6939 20.5106 24.052C18.9061 22.4102 16.6895 21.3947 14.2413 21.3947C11.793 21.3947 9.5764 22.4103 7.97193 24.052C6.36741 25.6939 5.37501 27.962 5.37501 30.4672Z" fill="#D2C08D"/>
<path d="M12.4526 31.8315C12.8222 31.8404 13.1289 31.541 13.1376 31.1628C13.1463 30.7846 12.8537 30.4707 12.4841 30.4618C11.0822 30.427 9.81796 30.3513 8.79552 30.2464C10.2236 30.1004 12.1336 30.0115 14.2413 30.0115C16.349 30.0115 18.259 30.1005 19.6872 30.2464C18.6637 30.3514 17.3979 30.4272 15.9943 30.4619C15.6247 30.4708 15.3321 30.7847 15.3408 31.1629C15.3495 31.5411 15.6562 31.8405 16.0258 31.8316C17.9095 31.785 19.555 31.6663 20.7237 31.5025C22.2152 31.2935 23.1076 30.8668 23.1076 30.2461C23.1076 29.5818 21.9607 29.1205 20.1065 28.9119C18.5941 28.7417 16.5195 28.6364 14.2413 28.6364C11.9631 28.6364 9.88852 28.7417 8.3761 28.9119C6.52191 29.1205 5.375 29.5818 5.375 30.2461C5.375 30.8666 6.26681 31.2933 7.75752 31.5023C8.92536 31.666 10.5699 31.7848 12.4526 31.8315L12.4526 31.8315ZM6.71879 30.2461C6.71879 30.337 6.82992 30.2871 7.03403 30.2261C6.82959 30.1966 6.71879 30.1839 6.71879 30.2461ZM21.7638 30.2461C21.7638 30.1839 21.6529 30.1966 21.4482 30.2261C21.6525 30.287 21.7638 30.3369 21.7638 30.2461Z" fill="#D2C08D"/>
<path d="M16.2187 29.2515C16.1434 28.8807 15.7885 28.6427 15.4261 28.7198C15.0638 28.7969 14.8311 29.16 14.9065 29.5308L16.2694 36.1721C15.5578 36.4758 14.8639 36.622 14.1867 36.6183C13.5231 36.6148 12.8658 36.4664 12.2147 36.1808L13.6114 29.5335C13.6882 29.1628 13.4568 28.7984 13.0944 28.7198C12.732 28.6412 12.376 28.8781 12.2992 29.2489L10.8008 36.3802C10.7169 36.6857 10.8493 37.0201 11.1347 37.1739L11.4478 36.5656L11.1355 37.1725C12.1235 37.705 13.1383 37.9824 14.1814 37.988C15.205 37.9936 16.2417 37.7364 17.2921 37.2008C17.5852 37.0769 17.76 36.7534 17.6924 36.4243L17.6907 36.4247L16.2187 29.2516L16.2187 29.2515Z" fill="#D2C08D"/>
<path d="M19.8926 15.0819C19.8926 15.4616 20.1934 15.7694 20.5645 15.7694C20.9355 15.7694 21.2364 15.4616 21.2364 15.0819C21.2364 12.9563 22.0783 11.0319 23.4396 9.63896C24.8009 8.24604 26.6815 7.3845 28.7589 7.3845C30.8362 7.3845 32.7169 8.24604 34.0781 9.63896C35.4394 11.0319 36.2814 12.9563 36.2814 15.0819C36.2814 15.4616 36.5822 15.7694 36.9532 15.7694C37.3243 15.7694 37.6251 15.4616 37.6251 15.0819C37.6251 12.5767 36.6327 10.3086 35.0282 8.66678C33.4237 7.02495 31.2071 6.00946 28.7589 6.00946C26.3106 6.00946 24.094 7.02495 22.4895 8.66678C20.885 10.3086 19.8926 12.5767 19.8926 15.0819H19.8926Z" fill="#512A18"/>
<path d="M26.9701 16.4462C27.3398 16.4551 27.6465 16.1557 27.6552 15.7775C27.6638 15.3993 27.3713 15.0855 27.0016 15.0766C25.5998 15.0418 24.3354 14.9661 23.313 14.8611C24.7411 14.7152 26.6512 14.6262 28.7589 14.6262C30.8666 14.6262 32.7766 14.7152 34.2048 14.8611C33.1813 14.9662 31.9155 15.0419 30.5119 15.0767C30.1423 15.0856 29.8497 15.3994 29.8584 15.7776C29.867 16.1558 30.1737 16.4552 30.5434 16.4463C32.427 16.3997 34.0726 16.281 35.2412 16.1172C36.7327 15.9082 37.6251 15.4815 37.6251 14.8609C37.6251 14.1965 36.4782 13.7353 34.624 13.5266C33.1116 13.3565 31.0371 13.2512 28.7589 13.2512C26.4807 13.2512 24.4061 13.3565 22.8937 13.5266C21.0395 13.7353 19.8926 14.1965 19.8926 14.8609C19.8926 15.4814 20.7844 15.908 22.2752 16.117C23.443 16.2808 25.0875 16.3995 26.9701 16.4462L26.9701 16.4462ZM21.2364 14.8609C21.2364 14.9517 21.3475 14.9018 21.5516 14.8408C21.3472 14.8114 21.2364 14.7986 21.2364 14.8609ZM36.2814 14.8609C36.2814 14.7986 36.1705 14.8114 35.9658 14.8408C36.1701 14.9017 36.2814 14.9517 36.2814 14.8609Z" fill="#512A18"/>
<path d="M30.7363 13.8663C30.6609 13.4955 30.3061 13.2574 29.9437 13.3346C29.5814 13.4117 29.3487 13.7748 29.4241 14.1456L30.787 20.7869C30.0754 21.0905 29.3814 21.2367 28.7043 21.2331C28.0407 21.2295 27.3834 21.0812 26.7323 20.7955L28.129 14.1483C28.2058 13.7775 27.9743 13.4132 27.612 13.3346C27.2496 13.256 26.8936 13.4928 26.8168 13.8636L25.3183 20.9949C25.2344 21.3004 25.3669 21.6348 25.6523 21.7886L25.9654 21.1803L25.6531 21.7872C26.6411 22.3196 27.6559 22.5971 28.699 22.6027C29.7226 22.6082 30.7593 22.3511 31.8097 21.8155C32.1028 21.6916 32.2775 21.3681 32.21 21.039L32.2083 21.0394L30.7363 13.8663L30.7363 13.8663Z" fill="#512A18"/>
<path d="M37.2536 29.6307L34.3409 26.6502L31.3715 29.6952L31.9616 30.2968L33.8894 28.3242V30.3592C33.8877 31.7629 33.342 33.1087 32.372 34.1013C31.4019 35.0939 30.0868 35.6522 28.7149 35.6539H23.7715V36.5135H28.717C30.3115 36.5118 31.8402 35.8632 32.9681 34.7099C34.0959 33.5567 34.7308 31.9928 34.7336 30.3613V28.264L36.6614 30.2367L37.2536 29.6307Z" fill="#D2C08D"/>
<path d="M13.9316 9.82129C12.3368 9.82299 10.8077 10.4719 9.67983 11.6256C8.55193 12.7793 7.91727 14.3437 7.91504 15.9756V18.0708L5.98722 16.0981L5.39502 16.7062L8.30775 19.6867L11.2772 16.6461L10.6871 16.0379L8.75925 18.0106V15.9756C8.76092 14.5719 9.30662 13.2261 10.2767 12.2335C11.2467 11.2409 12.5619 10.6825 13.9337 10.6808H18.8771V9.82129H13.9316Z" fill="#512A18"/>
</g>
<defs>
<clipPath id="clip0_241_328">
<rect width="43" height="44" fill="white"/>
</clipPath>
</defs>
</svg>
