<svg width="61" height="74" viewBox="0 0 61 74" fill="none" xmlns="http://www.w3.org/2000/svg">
<path d="M26.7764 4.08032C51.6668 2.49782 62.7373 24.6528 54.0907 39.3989C45.9869 53.2278 30.2856 69.3945 30.2856 69.3945C30.2856 69.3945 11.057 50.872 5.48563 38.8954C-0.0857797 26.9187 2.37432 5.62685 26.7764 4.06233V4.08032Z" fill="#512A18" stroke="#512A18" stroke-width="6" stroke-miterlimit="10"/>
<path d="M11.9175 30.1277C11.9175 30.8894 12.5351 31.507 13.2968 31.507C14.0585 31.507 14.6761 30.8894 14.6761 30.1277C14.6761 25.8632 16.4045 22.0026 19.1989 19.2081C21.9933 16.4137 25.8541 14.6852 30.1186 14.6852C34.383 14.6852 38.2437 16.4137 41.0382 19.2081C43.8326 22.0026 45.561 25.8632 45.561 30.1277C45.561 30.8894 46.1786 31.507 46.9403 31.507C47.7021 31.507 48.3196 30.8894 48.3196 30.1277C48.3196 25.1018 46.2823 20.5515 42.9885 17.2577C39.6947 13.964 35.1444 11.9266 30.1185 11.9266C25.0927 11.9266 20.5423 13.964 17.2486 17.2577C13.9547 20.5515 11.9175 25.1018 11.9175 30.1277Z" fill="#D2C08D"/>
<path d="M26.4466 32.8645C27.2054 32.8823 27.835 32.2817 27.8528 31.5229C27.8706 30.7641 27.27 30.1345 26.5113 30.1167C23.6336 30.0468 21.0382 29.895 18.9393 29.6845C21.8709 29.3916 25.7919 29.2131 30.1186 29.2131C34.4454 29.2131 38.3663 29.3917 41.2981 29.6845C39.1971 29.8951 36.5986 30.0472 33.7173 30.1169C32.9585 30.1347 32.3579 30.7643 32.3757 31.5231C32.3935 32.2819 33.0231 32.8825 33.7819 32.8647C37.6487 32.7711 41.0269 32.533 43.4258 32.2044C46.4877 31.7851 48.3196 30.929 48.3196 29.6839C48.3196 28.3511 45.9652 27.4258 42.1589 27.0072C39.0541 26.6658 34.7953 26.4545 30.1186 26.4545C25.4418 26.4545 21.183 26.6658 18.0783 27.0072C14.2719 27.4258 11.9175 28.3511 11.9175 29.6839C11.9175 30.9288 13.7482 31.7847 16.8084 32.204C19.2058 32.5325 22.5818 32.7707 26.4466 32.8645L26.4466 32.8645ZM14.6761 29.6839C14.6761 29.8662 14.9042 29.766 15.3232 29.6436C14.9035 29.5846 14.6761 29.5591 14.6761 29.6839ZM45.5611 29.6839C45.5611 29.559 45.3334 29.5846 44.9133 29.6437C45.3327 29.766 45.5611 29.8661 45.5611 29.6839Z" fill="#D2C08D"/>
<path d="M34.1777 27.6886C34.023 26.9447 33.2945 26.4671 32.5507 26.6218C31.8068 26.7765 31.3292 27.505 31.4839 28.2489L34.2817 41.5726C32.821 42.1818 31.3964 42.4751 30.0063 42.4678C28.644 42.4606 27.2947 42.163 25.9581 41.59L28.8253 28.2543C28.983 27.5105 28.5078 26.7795 27.764 26.6219C27.0201 26.4642 26.2892 26.9394 26.1315 27.6833L23.0555 41.9901C22.8833 42.6029 23.1551 43.2737 23.7411 43.5823L24.3838 42.362L23.7427 43.5796C25.7708 44.6477 27.854 45.2043 29.9955 45.2156C32.0968 45.2267 34.2248 44.7109 36.3812 43.6363C36.9829 43.3878 37.3416 42.7387 37.203 42.0785L37.1995 42.0792L34.1777 27.6887L34.1777 27.6886Z" fill="#D2C08D"/>
</svg>
